<?xml version="1.0" encoding="utf-8"?>
<!-- Generator: Adobe Illustrator 24.1.1, SVG Export Plug-In . SVG Version: 6.00 Build 0)  -->
<svg version="1.1" id="svg-editor-canvas" xmlns="http://www.w3.org/2000/svg" xmlns:xlink="http://www.w3.org/1999/xlink" x="0px"
	 y="0px" viewBox="0 0 211 54.3" style="enable-background:new 0 0 211 54.3;" xml:space="preserve">
<style type="text/css">
	.st0{fill:#1A2B47;}
	.st1{fill:#FA5636;}
	.st2{fill:none;}
	.st3{font-family:'Montserrat-Light';}
	.st4{font-size:12px;}
</style>
<g id="logo__item--logo_0">
	<g>
		<g>
			<path class="st0" d="M36.4,33.6l-1.6-1.1c-2.2,2.5-5.1,4.4-8.6,5.3c-8.8,2.1-17.7-3.3-19.8-12.1C4.3,17,9.7,8.1,18.5,5.9
				c8.7-2.1,17.6,3.3,19.8,12c1,4.1,0.3,8.2-1.5,11.7l1.6,1l0,0c1.6-3,2.7-6,2.7-8.4c0-10.4-8.5-18.9-18.9-18.9S3.3,11.8,3.3,22.2
				s18.9,28.9,18.9,28.9s8.7-8.5,14.3-17.2C36.4,33.8,36.4,33.7,36.4,33.6z"/>
			<g>
				<path class="st1" d="M35.3,18.7c-1.7-7.2-9-11.6-16.1-9.8C12,10.6,7.6,17.8,9.4,25s9,11.6,16.1,9.8C32.6,33.1,37,25.9,35.3,18.7
					z M31.7,27.2c0,0.8-0.7,1.5-1.5,1.5H14.6c-0.8,0-1.5-0.7-1.5-1.5v-9.9c0-0.8,0.7-1.5,1.5-1.5h4.8v-0.3c0-1.2,1-2.2,2.2-2.2h1.9
					c1.2,0,2.2,1,2.2,2.2v0.3h4.5c0.8,0,1.5,0.7,1.5,1.5L31.7,27.2L31.7,27.2z"/>
				<path class="st1" d="M23.6,14h-1.9c-0.8,0-1.4,0.6-1.4,1.4v0.3H25v-0.3C25,14.6,24.3,14,23.6,14z"/>
			</g>
		</g>
	</g>
</g>
<g>
	<path class="st0" d="M59.5,17.5c0.5,0.7,0.8,1.5,0.8,2.5c0,1.4-0.5,2.4-1.6,3.2c-1.1,0.7-2.6,1.1-4.7,1.1h-8.1V8.5h7.7
		c1.9,0,3.4,0.4,4.4,1.1s1.5,1.7,1.5,3c0,0.8-0.2,1.4-0.5,2c-0.4,0.6-0.9,1.1-1.5,1.4C58.3,16.3,59,16.8,59.5,17.5z M49.4,11.2v3.7
		H53c0.9,0,1.6-0.2,2-0.5c0.5-0.3,0.7-0.8,0.7-1.4c0-0.6-0.2-1.1-0.7-1.4s-1.1-0.5-2-0.5L49.4,11.2L49.4,11.2z M55.8,21
		c0.5-0.3,0.7-0.8,0.7-1.5c0-1.3-1-1.9-2.9-1.9h-4.2v3.9h4.2C54.6,21.5,55.4,21.3,55.8,21z"/>
	<path class="st0" d="M65.1,23.6c-1-0.5-1.8-1.3-2.4-2.2c-0.6-0.9-0.9-2-0.9-3.2s0.3-2.3,0.9-3.2c0.6-0.9,1.4-1.7,2.4-2.2
		s2.1-0.8,3.4-0.8s2.4,0.3,3.4,0.8s1.8,1.3,2.4,2.2s0.9,2,0.9,3.2s-0.3,2.3-0.9,3.2s-1.4,1.7-2.4,2.2s-2.1,0.8-3.4,0.8
		S66.1,24.1,65.1,23.6z M70.7,20.6c0.6-0.6,0.9-1.4,0.9-2.4s-0.3-1.8-0.9-2.4c-0.6-0.6-1.3-0.9-2.2-0.9s-1.6,0.3-2.2,0.9
		s-0.9,1.4-0.9,2.4s0.3,1.8,0.9,2.4s1.3,0.9,2.2,0.9C69.4,21.5,70.1,21.2,70.7,20.6z"/>
	<path class="st0" d="M79.7,23.6c-1-0.5-1.8-1.3-2.4-2.2c-0.6-0.9-0.9-2-0.9-3.2s0.3-2.3,0.9-3.2s1.4-1.7,2.4-2.2s2.1-0.8,3.4-0.8
		s2.4,0.3,3.4,0.8s1.8,1.3,2.4,2.2s0.9,2,0.9,3.2s-0.3,2.3-0.9,3.2s-1.4,1.7-2.4,2.2s-2.1,0.8-3.4,0.8
		C81.9,24.4,80.7,24.1,79.7,23.6z M85.4,20.6c0.6-0.6,0.9-1.4,0.9-2.4s-0.3-1.8-0.9-2.4c-0.6-0.6-1.3-0.9-2.2-0.9
		c-0.9,0-1.6,0.3-2.2,0.9s-0.9,1.4-0.9,2.4s0.3,1.8,0.9,2.4s1.3,0.9,2.2,0.9C84,21.5,84.8,21.2,85.4,20.6z"/>
	<path class="st0" d="M97.3,19.5l-1.7,1.7v3.1h-3.5V7.6h3.5V17l5.1-4.8h4.2l-5,5.1l5.5,6.9h-4.2L97.3,19.5z"/>
	<path class="st0" d="M107,9.9c-0.4-0.4-0.6-0.8-0.6-1.4s0.2-1,0.6-1.4s0.9-0.6,1.6-0.6s1.2,0.2,1.6,0.5c0.4,0.4,0.6,0.8,0.6,1.3
		c0,0.6-0.2,1.1-0.6,1.4c-0.4,0.4-0.9,0.6-1.6,0.6S107.4,10.3,107,9.9z M106.8,12.1h3.5v12.1h-3.5V12.1z"/>
	<path class="st0" d="M124.5,13.3c0.9,0.9,1.4,2.2,1.4,4v6.9h-3.5v-6.4c0-1-0.2-1.7-0.6-2.1c-0.4-0.5-1-0.7-1.8-0.7
		c-0.9,0-1.6,0.3-2.1,0.8c-0.5,0.5-0.8,1.4-0.8,2.4v6h-3.5V12.1h3.3v1.4c0.5-0.5,1-0.9,1.7-1.2s1.4-0.4,2.3-0.4
		C122.4,12,123.6,12.4,124.5,13.3z"/>
	<path class="st0" d="M141.6,12.1v10c0,2.2-0.6,3.9-1.7,4.9c-1.2,1.1-2.8,1.6-5,1.6c-1.2,0-2.3-0.1-3.3-0.4s-1.9-0.7-2.6-1.2
		l1.4-2.5c0.5,0.4,1.1,0.8,1.9,1c0.8,0.2,1.6,0.4,2.3,0.4c1.2,0,2.1-0.3,2.7-0.8c0.6-0.5,0.9-1.4,0.9-2.5v-0.5
		c-0.9,1-2.2,1.5-3.8,1.5c-1.1,0-2.1-0.2-3-0.7s-1.6-1.2-2.2-2.1c-0.5-0.9-0.8-1.9-0.8-3c0-1.2,0.3-2.2,0.8-3
		c0.5-0.9,1.3-1.6,2.2-2.1s1.9-0.7,3-0.7c1.7,0,3.1,0.6,4,1.7v-1.5C138.3,12.1,141.6,12.1,141.6,12.1z M137.3,19.9
		c0.6-0.5,0.9-1.3,0.9-2.1c0-0.9-0.3-1.6-0.9-2.1c-0.6-0.5-1.3-0.8-2.3-0.8c-0.9,0-1.7,0.3-2.3,0.8c-0.6,0.5-0.9,1.3-0.9,2.1
		c0,0.9,0.3,1.6,0.9,2.1c0.6,0.5,1.4,0.8,2.3,0.8C135.9,20.7,136.7,20.5,137.3,19.9z"/>
	<path class="st1" d="M154.6,23.4c-1.3-0.7-2.3-1.7-3-2.9c-0.7-1.2-1.1-2.6-1.1-4.2s0.4-2.9,1.1-4.2c0.7-1.2,1.8-2.2,3-2.9
		c1.3-0.7,2.7-1,4.4-1c1.4,0,2.6,0.2,3.7,0.7s2,1.2,2.8,2.1l-2.3,2.2c-1.1-1.2-2.4-1.8-3.9-1.8c-1,0-1.8,0.2-2.6,0.6
		c-0.8,0.4-1.4,1-1.8,1.8s-0.6,1.6-0.6,2.6c0,1,0.2,1.8,0.6,2.6s1,1.4,1.8,1.8s1.6,0.6,2.6,0.6c1.6,0,2.9-0.6,3.9-1.9l2.3,2.2
		c-0.7,0.9-1.7,1.6-2.8,2.1s-2.3,0.7-3.7,0.7C157.3,24.5,155.9,24.1,154.6,23.4z"/>
	<path class="st1" d="M169.5,23.6c-1-0.5-1.8-1.3-2.4-2.2c-0.6-0.9-0.9-2-0.9-3.2s0.3-2.3,0.9-3.2c0.6-0.9,1.4-1.7,2.4-2.2
		s2.1-0.8,3.4-0.8s2.4,0.3,3.4,0.8s1.8,1.3,2.4,2.2c0.6,0.9,0.9,2,0.9,3.2s-0.3,2.3-0.9,3.2c-0.6,0.9-1.4,1.7-2.4,2.2
		s-2.1,0.8-3.4,0.8S170.5,24.1,169.5,23.6z M175.1,20.6c0.6-0.6,0.9-1.4,0.9-2.4s-0.3-1.8-0.9-2.4c-0.6-0.6-1.3-0.9-2.2-0.9
		s-1.6,0.3-2.2,0.9c-0.6,0.6-0.9,1.4-0.9,2.4s0.3,1.8,0.9,2.4s1.3,0.9,2.2,0.9S174.5,21.2,175.1,20.6z"/>
	<path class="st1" d="M186.9,12.4c0.7-0.3,1.5-0.4,2.5-0.4v3.2c-0.4,0-0.6,0-0.8,0c-1,0-1.8,0.3-2.4,0.8c-0.6,0.6-0.9,1.4-0.9,2.5
		v5.7h-3.5V12.1h3.3v1.6C185.6,13.1,186.2,12.7,186.9,12.4z"/>
	<path class="st1" d="M203.1,19.2H194c0.2,0.7,0.6,1.3,1.2,1.8c0.6,0.4,1.4,0.6,2.3,0.6c0.6,0,1.2-0.1,1.7-0.3s0.9-0.5,1.4-0.9
		l1.9,2c-1.1,1.3-2.8,1.9-5,1.9c-1.4,0-2.6-0.3-3.6-0.8s-1.9-1.3-2.4-2.2c-0.6-0.9-0.9-2-0.9-3.2s0.3-2.2,0.8-3.2s1.3-1.7,2.3-2.2
		s2.1-0.8,3.3-0.8s2.2,0.3,3.2,0.8s1.7,1.2,2.3,2.2s0.8,2.1,0.8,3.3C203.1,18.3,203.1,18.6,203.1,19.2z M194.9,15.3
		c-0.5,0.4-0.9,1.1-1,1.8h5.9c-0.1-0.8-0.4-1.4-1-1.8c-0.5-0.5-1.2-0.7-2-0.7C196.1,14.6,195.4,14.8,194.9,15.3z"/>
</g>
<rect x="44.4" y="37.2" class="st2" width="126.4" height="11.2"/>
<text transform="matrix(1 0 0 1 44.3835 46.13)" class="st0 st3 st4">Recanto &amp; Hotéis S.A.</text>
</svg>
