<?xml version="1.0" encoding="utf-8"?>
<!-- Generator: Adobe Illustrator 24.1.1, SVG Export Plug-In . SVG Version: 6.00 Build 0)  -->
<svg version="1.1" id="svg-editor-canvas" xmlns="http://www.w3.org/2000/svg" xmlns:xlink="http://www.w3.org/1999/xlink" x="0px"
	 y="0px" width="211px" height="54.3px" viewBox="0 0 211 54.3" style="enable-background:new 0 0 211 54.3;" xml:space="preserve">
<style type="text/css">
	.st0{fill:#1A2B47;}
	.st1{fill:#FA5636;}
	.st2{fill:none;}
	.st3{enable-background:new    ;}
</style>
<g id="logo__item--logo_0">
	<g>
		<g>
			<path class="st0" d="M36.4,33.6l-1.6-1.1c-2.2,2.5-5.1,4.4-8.6,5.3c-8.8,2.1-17.7-3.3-19.8-12.1C4.3,17,9.7,8.1,18.5,5.9
				c8.7-2.1,17.6,3.3,19.8,12c1,4.1,0.3,8.2-1.5,11.7l1.6,1l0,0c1.6-3,2.7-6,2.7-8.4c0-10.4-8.5-18.9-18.9-18.9S3.3,11.8,3.3,22.2
				s18.9,28.9,18.9,28.9s8.7-8.5,14.3-17.2C36.4,33.8,36.4,33.7,36.4,33.6z"/>
			<g>
				<path class="st1" d="M35.3,18.7c-1.7-7.2-9-11.6-16.1-9.8C12,10.6,7.6,17.8,9.4,25s9,11.6,16.1,9.8C32.6,33.1,37,25.9,35.3,18.7
					z M31.7,27.2c0,0.8-0.7,1.5-1.5,1.5H14.6c-0.8,0-1.5-0.7-1.5-1.5v-9.9c0-0.8,0.7-1.5,1.5-1.5h4.8v-0.3c0-1.2,1-2.2,2.2-2.2h1.9
					c1.2,0,2.2,1,2.2,2.2v0.3h4.5c0.8,0,1.5,0.7,1.5,1.5L31.7,27.2L31.7,27.2z"/>
				<path class="st1" d="M23.6,14h-1.9c-0.8,0-1.4,0.6-1.4,1.4v0.3H25v-0.3C25,14.6,24.3,14,23.6,14z"/>
			</g>
		</g>
	</g>
</g>
<g>
	<path class="st0" d="M59.5,17.5c0.5,0.7,0.8,1.5,0.8,2.5c0,1.4-0.5,2.4-1.6,3.2c-1.1,0.7-2.6,1.1-4.7,1.1h-8.1V8.5h7.7
		c1.9,0,3.4,0.4,4.4,1.1s1.5,1.7,1.5,3c0,0.8-0.2,1.4-0.5,2c-0.4,0.6-0.9,1.1-1.5,1.4C58.3,16.3,59,16.8,59.5,17.5z M49.4,11.2v3.7
		H53c0.9,0,1.6-0.2,2-0.5c0.5-0.3,0.7-0.8,0.7-1.4c0-0.6-0.2-1.1-0.7-1.4s-1.1-0.5-2-0.5L49.4,11.2L49.4,11.2z M55.8,21
		c0.5-0.3,0.7-0.8,0.7-1.5c0-1.3-1-1.9-2.9-1.9h-4.2v3.9h4.2C54.6,21.5,55.4,21.3,55.8,21z"/>
	<path class="st0" d="M65.1,23.6c-1-0.5-1.8-1.3-2.4-2.2c-0.6-0.9-0.9-2-0.9-3.2s0.3-2.3,0.9-3.2c0.6-0.9,1.4-1.7,2.4-2.2
		s2.1-0.8,3.4-0.8s2.4,0.3,3.4,0.8s1.8,1.3,2.4,2.2s0.9,2,0.9,3.2s-0.3,2.3-0.9,3.2s-1.4,1.7-2.4,2.2s-2.1,0.8-3.4,0.8
		S66.1,24.1,65.1,23.6z M70.7,20.6c0.6-0.6,0.9-1.4,0.9-2.4s-0.3-1.8-0.9-2.4c-0.6-0.6-1.3-0.9-2.2-0.9s-1.6,0.3-2.2,0.9
		s-0.9,1.4-0.9,2.4s0.3,1.8,0.9,2.4s1.3,0.9,2.2,0.9C69.4,21.5,70.1,21.2,70.7,20.6z"/>
	<path class="st0" d="M79.7,23.6c-1-0.5-1.8-1.3-2.4-2.2c-0.6-0.9-0.9-2-0.9-3.2s0.3-2.3,0.9-3.2s1.4-1.7,2.4-2.2s2.1-0.8,3.4-0.8
		s2.4,0.3,3.4,0.8s1.8,1.3,2.4,2.2s0.9,2,0.9,3.2s-0.3,2.3-0.9,3.2s-1.4,1.7-2.4,2.2s-2.1,0.8-3.4,0.8
		C81.9,24.4,80.7,24.1,79.7,23.6z M85.4,20.6c0.6-0.6,0.9-1.4,0.9-2.4s-0.3-1.8-0.9-2.4c-0.6-0.6-1.3-0.9-2.2-0.9
		c-0.9,0-1.6,0.3-2.2,0.9s-0.9,1.4-0.9,2.4s0.3,1.8,0.9,2.4s1.3,0.9,2.2,0.9C84,21.5,84.8,21.2,85.4,20.6z"/>
	<path class="st0" d="M97.3,19.5l-1.7,1.7v3.1h-3.5V7.6h3.5V17l5.1-4.8h4.2l-5,5.1l5.5,6.9h-4.2L97.3,19.5z"/>
	<path class="st0" d="M107,9.9c-0.4-0.4-0.6-0.8-0.6-1.4s0.2-1,0.6-1.4s0.9-0.6,1.6-0.6s1.2,0.2,1.6,0.5c0.4,0.4,0.6,0.8,0.6,1.3
		c0,0.6-0.2,1.1-0.6,1.4c-0.4,0.4-0.9,0.6-1.6,0.6S107.4,10.3,107,9.9z M106.8,12.1h3.5v12.1h-3.5V12.1z"/>
	<path class="st0" d="M124.5,13.3c0.9,0.9,1.4,2.2,1.4,4v6.9h-3.5v-6.4c0-1-0.2-1.7-0.6-2.1c-0.4-0.5-1-0.7-1.8-0.7
		c-0.9,0-1.6,0.3-2.1,0.8c-0.5,0.5-0.8,1.4-0.8,2.4v6h-3.5V12.1h3.3v1.4c0.5-0.5,1-0.9,1.7-1.2s1.4-0.4,2.3-0.4
		C122.4,12,123.6,12.4,124.5,13.3z"/>
	<path class="st0" d="M141.6,12.1v10c0,2.2-0.6,3.9-1.7,4.9c-1.2,1.1-2.8,1.6-5,1.6c-1.2,0-2.3-0.1-3.3-0.4s-1.9-0.7-2.6-1.2
		l1.4-2.5c0.5,0.4,1.1,0.8,1.9,1c0.8,0.2,1.6,0.4,2.3,0.4c1.2,0,2.1-0.3,2.7-0.8c0.6-0.5,0.9-1.4,0.9-2.5v-0.5
		c-0.9,1-2.2,1.5-3.8,1.5c-1.1,0-2.1-0.2-3-0.7s-1.6-1.2-2.2-2.1c-0.5-0.9-0.8-1.9-0.8-3c0-1.2,0.3-2.2,0.8-3
		c0.5-0.9,1.3-1.6,2.2-2.1s1.9-0.7,3-0.7c1.7,0,3.1,0.6,4,1.7v-1.5C138.3,12.1,141.6,12.1,141.6,12.1z M137.3,19.9
		c0.6-0.5,0.9-1.3,0.9-2.1c0-0.9-0.3-1.6-0.9-2.1c-0.6-0.5-1.3-0.8-2.3-0.8c-0.9,0-1.7,0.3-2.3,0.8c-0.6,0.5-0.9,1.3-0.9,2.1
		c0,0.9,0.3,1.6,0.9,2.1c0.6,0.5,1.4,0.8,2.3,0.8C135.9,20.7,136.7,20.5,137.3,19.9z"/>
	<path class="st1" d="M154.6,23.4c-1.3-0.7-2.3-1.7-3-2.9c-0.7-1.2-1.1-2.6-1.1-4.2s0.4-2.9,1.1-4.2c0.7-1.2,1.8-2.2,3-2.9
		c1.3-0.7,2.7-1,4.4-1c1.4,0,2.6,0.2,3.7,0.7s2,1.2,2.8,2.1l-2.3,2.2c-1.1-1.2-2.4-1.8-3.9-1.8c-1,0-1.8,0.2-2.6,0.6
		c-0.8,0.4-1.4,1-1.8,1.8s-0.6,1.6-0.6,2.6c0,1,0.2,1.8,0.6,2.6s1,1.4,1.8,1.8s1.6,0.6,2.6,0.6c1.6,0,2.9-0.6,3.9-1.9l2.3,2.2
		c-0.7,0.9-1.7,1.6-2.8,2.1s-2.3,0.7-3.7,0.7C157.3,24.5,155.9,24.1,154.6,23.4z"/>
	<path class="st1" d="M169.5,23.6c-1-0.5-1.8-1.3-2.4-2.2c-0.6-0.9-0.9-2-0.9-3.2s0.3-2.3,0.9-3.2c0.6-0.9,1.4-1.7,2.4-2.2
		s2.1-0.8,3.4-0.8s2.4,0.3,3.4,0.8s1.8,1.3,2.4,2.2c0.6,0.9,0.9,2,0.9,3.2s-0.3,2.3-0.9,3.2c-0.6,0.9-1.4,1.7-2.4,2.2
		s-2.1,0.8-3.4,0.8S170.5,24.1,169.5,23.6z M175.1,20.6c0.6-0.6,0.9-1.4,0.9-2.4s-0.3-1.8-0.9-2.4c-0.6-0.6-1.3-0.9-2.2-0.9
		s-1.6,0.3-2.2,0.9c-0.6,0.6-0.9,1.4-0.9,2.4s0.3,1.8,0.9,2.4s1.3,0.9,2.2,0.9S174.5,21.2,175.1,20.6z"/>
	<path class="st1" d="M186.9,12.4c0.7-0.3,1.5-0.4,2.5-0.4v3.2c-0.4,0-0.6,0-0.8,0c-1,0-1.8,0.3-2.4,0.8c-0.6,0.6-0.9,1.4-0.9,2.5
		v5.7h-3.5V12.1h3.3v1.6C185.6,13.1,186.2,12.7,186.9,12.4z"/>
	<path class="st1" d="M203.1,19.2H194c0.2,0.7,0.6,1.3,1.2,1.8c0.6,0.4,1.4,0.6,2.3,0.6c0.6,0,1.2-0.1,1.7-0.3s0.9-0.5,1.4-0.9
		l1.9,2c-1.1,1.3-2.8,1.9-5,1.9c-1.4,0-2.6-0.3-3.6-0.8s-1.9-1.3-2.4-2.2c-0.6-0.9-0.9-2-0.9-3.2s0.3-2.2,0.8-3.2s1.3-1.7,2.3-2.2
		s2.1-0.8,3.3-0.8s2.2,0.3,3.2,0.8s1.7,1.2,2.3,2.2s0.8,2.1,0.8,3.3C203.1,18.3,203.1,18.6,203.1,19.2z M194.9,15.3
		c-0.5,0.4-0.9,1.1-1,1.8h5.9c-0.1-0.8-0.4-1.4-1-1.8c-0.5-0.5-1.2-0.7-2-0.7C196.1,14.6,195.4,14.8,194.9,15.3z"/>
</g>
<rect x="44.4" y="37.2" class="st2" width="126.4" height="11.2"/>
<g class="st3">
	<path class="st0" d="M51.6,46.1l-1.9-2.7c-0.2,0-0.4,0-0.7,0h-2.3v2.7h-0.9v-8.4h3.1c2.1,0,3.4,1.1,3.4,2.9c0,1.3-0.7,2.2-1.9,2.6
		l2.1,2.9H51.6z M51.6,40.6c0-1.3-0.9-2.1-2.6-2.1h-2.2v4.2H49C50.7,42.7,51.6,41.9,51.6,40.6z"/>
	<path class="st0" d="M59.9,43.3h-5.3c0.1,1.3,1.1,2.2,2.5,2.2c0.8,0,1.5-0.3,1.9-0.8l0.5,0.6c-0.6,0.7-1.4,1-2.4,1
		c-2,0-3.3-1.3-3.3-3.2s1.3-3.2,3.1-3.2c1.8,0,3.1,1.3,3.1,3.2C59.9,43.1,59.9,43.2,59.9,43.3z M54.6,42.6h4.5
		c-0.1-1.2-1-2.1-2.2-2.1C55.6,40.5,54.7,41.4,54.6,42.6z"/>
	<path class="st0" d="M61,43c0-1.9,1.4-3.2,3.3-3.2c1.1,0,2,0.4,2.5,1.2l-0.6,0.4c-0.4-0.6-1.1-0.9-1.8-0.9c-1.4,0-2.4,1-2.4,2.5
		c0,1.5,1,2.5,2.4,2.5c0.7,0,1.4-0.3,1.8-0.9l0.6,0.4c-0.5,0.8-1.4,1.2-2.5,1.2C62.4,46.2,61,44.9,61,43z"/>
	<path class="st0" d="M73.2,42.2v3.9h-0.8v-1c-0.4,0.6-1.1,1-2.2,1c-1.4,0-2.3-0.7-2.3-1.8c0-1,0.6-1.8,2.4-1.8h2v-0.4
		c0-1.1-0.6-1.7-1.8-1.7c-0.8,0-1.6,0.3-2.1,0.7l-0.4-0.6c0.6-0.5,1.6-0.9,2.6-0.9C72.3,39.8,73.2,40.6,73.2,42.2z M72.3,44.2v-1h-2
		c-1.2,0-1.6,0.5-1.6,1.1c0,0.7,0.6,1.2,1.6,1.2C71.3,45.5,72,45.1,72.3,44.2z"/>
	<path class="st0" d="M81.3,42.5v3.7h-0.9v-3.6c0-1.3-0.7-2-1.9-2c-1.4,0-2.2,0.8-2.2,2.3v3.3h-0.9v-6.3h0.8V41
		c0.5-0.8,1.3-1.2,2.4-1.2C80.2,39.8,81.3,40.7,81.3,42.5z"/>
	<path class="st0" d="M86.9,45.8c-0.3,0.3-0.8,0.4-1.3,0.4c-1.2,0-1.8-0.7-1.8-1.8v-3.8h-1.1v-0.7h1.1v-1.4h0.9v1.4h1.9v0.7h-1.9
		v3.8c0,0.7,0.4,1.2,1.1,1.2c0.3,0,0.7-0.1,0.9-0.3L86.9,45.8z"/>
	<path class="st0" d="M87.6,43c0-1.9,1.4-3.2,3.2-3.2c1.8,0,3.2,1.3,3.2,3.2s-1.4,3.2-3.2,3.2C89,46.2,87.6,44.9,87.6,43z M93.2,43
		c0-1.5-1-2.5-2.3-2.5s-2.4,1-2.4,2.5s1,2.5,2.4,2.5S93.2,44.5,93.2,43z"/>
	<path class="st0" d="M105.1,46.3l-1.2-1.2c-0.7,0.8-1.7,1.1-2.8,1.1c-1.6,0-2.8-0.9-2.8-2.1c0-1,0.6-1.7,2.1-2.6
		c-0.8-0.8-1.1-1.3-1.1-2c0-1.1,0.8-1.8,2.1-1.8c1.2,0,2,0.6,2,1.7c0,0.8-0.5,1.4-1.9,2.2l2.3,2.4c0.3-0.4,0.4-1,0.6-1.6l0.7,0.2
		c-0.2,0.8-0.4,1.4-0.7,1.9l1.2,1.2L105.1,46.3z M103.5,44.6l-2.5-2.6c-1.3,0.8-1.8,1.3-1.8,2c0,0.9,0.8,1.5,2,1.5
		C102.1,45.5,102.9,45.2,103.5,44.6z M100.2,39.5c0,0.5,0.2,0.8,0.9,1.6c1.2-0.7,1.6-1.1,1.6-1.7c0-0.6-0.4-1-1.2-1
		C100.7,38.3,100.2,38.8,100.2,39.5z"/>
	<path class="st0" d="M117.3,37.7v8.4h-0.9v-3.9h-5.3v3.9h-0.9v-8.4h0.9v3.7h5.3v-3.7H117.3z"/>
	<path class="st0" d="M119.2,43c0-1.9,1.4-3.2,3.2-3.2s3.2,1.3,3.2,3.2s-1.4,3.2-3.2,3.2S119.2,44.9,119.2,43z M124.8,43
		c0-1.5-1-2.5-2.3-2.5c-1.3,0-2.4,1-2.4,2.5s1,2.5,2.4,2.5C123.8,45.4,124.8,44.5,124.8,43z"/>
	<path class="st0" d="M130.7,45.8c-0.3,0.3-0.8,0.4-1.3,0.4c-1.2,0-1.8-0.7-1.8-1.8v-3.8h-1.1v-0.7h1.1v-1.4h0.9v1.4h1.9v0.7h-1.9
		v3.8c0,0.7,0.4,1.2,1.1,1.2c0.3,0,0.7-0.1,0.9-0.3L130.7,45.8z"/>
	<path class="st0" d="M137.5,43.3h-5.3c0.1,1.3,1.1,2.2,2.5,2.2c0.8,0,1.5-0.3,1.9-0.8l0.5,0.6c-0.6,0.7-1.4,1-2.4,1
		c-2,0-3.3-1.3-3.3-3.2s1.3-3.2,3.1-3.2s3.1,1.3,3.1,3.2C137.5,43.1,137.5,43.2,137.5,43.3z M132.2,42.6h4.5c-0.1-1.2-1-2.1-2.2-2.1
		C133.3,40.5,132.4,41.4,132.2,42.6z M134.5,38.9h-0.8l1.6-1.5h1.1L134.5,38.9z"/>
	<path class="st0" d="M139.1,37.8c0-0.3,0.3-0.6,0.6-0.6s0.6,0.3,0.6,0.6c0,0.3-0.3,0.6-0.6,0.6C139.4,38.5,139.1,38.2,139.1,37.8z
		 M139.3,39.8h0.9v6.3h-0.9V39.8z"/>
	<path class="st0" d="M141.6,45.4l0.4-0.7c0.5,0.4,1.4,0.7,2.2,0.7c1.2,0,1.7-0.4,1.7-1c0-1.6-4.1-0.3-4.1-2.8c0-1,0.9-1.8,2.5-1.8
		c0.8,0,1.7,0.2,2.2,0.6l-0.4,0.7c-0.6-0.4-1.2-0.5-1.9-0.5c-1.1,0-1.6,0.4-1.6,1c0,1.7,4.1,0.4,4.1,2.8c0,1.1-1,1.8-2.6,1.8
		C143.2,46.2,142.1,45.9,141.6,45.4z"/>
	<path class="st0" d="M150.9,45.1l0.3-0.7c0.6,0.6,1.7,1,2.8,1c1.6,0,2.3-0.7,2.3-1.5c0-2.3-5.2-0.9-5.2-4c0-1.2,1-2.3,3.1-2.3
		c0.9,0,1.9,0.3,2.6,0.7l-0.3,0.7c-0.7-0.5-1.6-0.7-2.3-0.7c-1.5,0-2.2,0.7-2.2,1.5c0,2.3,5.2,0.9,5.2,4c0,1.2-1,2.3-3.1,2.3
		C152.8,46.2,151.5,45.8,150.9,45.1z"/>
	<path class="st0" d="M158.6,45.5c0-0.4,0.3-0.6,0.6-0.6c0.3,0,0.6,0.3,0.6,0.6s-0.3,0.7-0.6,0.7C158.9,46.2,158.6,45.9,158.6,45.5z
		"/>
	<path class="st0" d="M167.5,43.9h-4.7l-1,2.2h-0.9l3.8-8.4h0.9l3.8,8.4h-0.9L167.5,43.9z M167.2,43.2l-2-4.5l-2,4.5H167.2z"/>
	<path class="st0" d="M170.5,45.5c0-0.4,0.3-0.6,0.6-0.6c0.3,0,0.6,0.3,0.6,0.6s-0.3,0.7-0.6,0.7C170.8,46.2,170.5,45.9,170.5,45.5z
		"/>
</g>
</svg>
