<?xml version="1.0" encoding="utf-8"?>
<!-- Generator: Adobe Illustrator 24.1.1, SVG Export Plug-In . SVG Version: 6.00 Build 0)  -->
<svg version="1.1" id="svg-editor-canvas" xmlns="http://www.w3.org/2000/svg" xmlns:xlink="http://www.w3.org/1999/xlink" x="0px"
	 y="0px" width="211px" height="54.3px" viewBox="0 0 211 54.3" style="enable-background:new 0 0 211 54.3;" xml:space="preserve">
<style type="text/css">
	.st0{fill:#1A2B47;}
	.st1{fill:#FA5636;}
	.st2{fill:none;}
	.st3{enable-background:new    ;}
</style>
<g id="logo__item--logo_0">
	<g>
		<g>
			<path class="st0" d="M36.4,33.6l-1.6-1.1c-2.2,2.5-5.1,4.4-8.6,5.3c-8.8,2.1-17.7-3.3-19.8-12.1C4.3,17,9.7,8.1,18.5,5.9
				c8.7-2.1,17.6,3.3,19.8,12c1,4.1,0.3,8.2-1.5,11.7l1.6,1l0,0c1.6-3,2.7-6,2.7-8.4c0-10.4-8.5-18.9-18.9-18.9S3.3,11.8,3.3,22.2
				s18.9,28.9,18.9,28.9s8.7-8.5,14.3-17.2C36.4,33.8,36.4,33.7,36.4,33.6z"/>
			<g>
				<path class="st1" d="M35.3,18.7c-1.7-7.2-9-11.6-16.1-9.8C12,10.6,7.6,17.8,9.4,25s9,11.6,16.1,9.8C32.6,33.1,37,25.9,35.3,18.7
					z M31.7,27.2c0,0.8-0.7,1.5-1.5,1.5H14.6c-0.8,0-1.5-0.7-1.5-1.5v-9.9c0-0.8,0.7-1.5,1.5-1.5h4.8v-0.3c0-1.2,1-2.2,2.2-2.2h1.9
					c1.2,0,2.2,1,2.2,2.2v0.3h4.5c0.8,0,1.5,0.7,1.5,1.5L31.7,27.2L31.7,27.2z"/>
				<path class="st1" d="M23.6,14h-1.9c-0.8,0-1.4,0.6-1.4,1.4v0.3H25v-0.3C25,14.6,24.3,14,23.6,14z"/>
			</g>
		</g>
	</g>
</g>
<g>
	<path class="st0" d="M59.5,17.5c0.5,0.7,0.8,1.5,0.8,2.5c0,1.4-0.5,2.4-1.6,3.2c-1.1,0.7-2.6,1.1-4.7,1.1h-8.1V8.5h7.7
		c1.9,0,3.4,0.4,4.4,1.1s1.5,1.7,1.5,3c0,0.8-0.2,1.4-0.5,2c-0.4,0.6-0.9,1.1-1.5,1.4C58.3,16.3,59,16.8,59.5,17.5z M49.4,11.2v3.7
		H53c0.9,0,1.6-0.2,2-0.5c0.5-0.3,0.7-0.8,0.7-1.4c0-0.6-0.2-1.1-0.7-1.4s-1.1-0.5-2-0.5L49.4,11.2L49.4,11.2z M55.8,21
		c0.5-0.3,0.7-0.8,0.7-1.5c0-1.3-1-1.9-2.9-1.9h-4.2v3.9h4.2C54.6,21.5,55.4,21.3,55.8,21z"/>
	<path class="st0" d="M65.1,23.6c-1-0.5-1.8-1.3-2.4-2.2c-0.6-0.9-0.9-2-0.9-3.2s0.3-2.3,0.9-3.2c0.6-0.9,1.4-1.7,2.4-2.2
		s2.1-0.8,3.4-0.8s2.4,0.3,3.4,0.8s1.8,1.3,2.4,2.2s0.9,2,0.9,3.2s-0.3,2.3-0.9,3.2s-1.4,1.7-2.4,2.2s-2.1,0.8-3.4,0.8
		S66.1,24.1,65.1,23.6z M70.7,20.6c0.6-0.6,0.9-1.4,0.9-2.4s-0.3-1.8-0.9-2.4c-0.6-0.6-1.3-0.9-2.2-0.9s-1.6,0.3-2.2,0.9
		s-0.9,1.4-0.9,2.4s0.3,1.8,0.9,2.4s1.3,0.9,2.2,0.9C69.4,21.5,70.1,21.2,70.7,20.6z"/>
	<path class="st0" d="M79.7,23.6c-1-0.5-1.8-1.3-2.4-2.2c-0.6-0.9-0.9-2-0.9-3.2s0.3-2.3,0.9-3.2s1.4-1.7,2.4-2.2s2.1-0.8,3.4-0.8
		s2.4,0.3,3.4,0.8s1.8,1.3,2.4,2.2s0.9,2,0.9,3.2s-0.3,2.3-0.9,3.2s-1.4,1.7-2.4,2.2s-2.1,0.8-3.4,0.8
		C81.9,24.4,80.7,24.1,79.7,23.6z M85.4,20.6c0.6-0.6,0.9-1.4,0.9-2.4s-0.3-1.8-0.9-2.4c-0.6-0.6-1.3-0.9-2.2-0.9
		c-0.9,0-1.6,0.3-2.2,0.9s-0.9,1.4-0.9,2.4s0.3,1.8,0.9,2.4s1.3,0.9,2.2,0.9C84,21.5,84.8,21.2,85.4,20.6z"/>
	<path class="st0" d="M97.3,19.5l-1.7,1.7v3.1h-3.5V7.6h3.5V17l5.1-4.8h4.2l-5,5.1l5.5,6.9h-4.2L97.3,19.5z"/>
	<path class="st0" d="M107,9.9c-0.4-0.4-0.6-0.8-0.6-1.4s0.2-1,0.6-1.4s0.9-0.6,1.6-0.6s1.2,0.2,1.6,0.5c0.4,0.4,0.6,0.8,0.6,1.3
		c0,0.6-0.2,1.1-0.6,1.4c-0.4,0.4-0.9,0.6-1.6,0.6S107.4,10.3,107,9.9z M106.8,12.1h3.5v12.1h-3.5V12.1z"/>
	<path class="st0" d="M124.5,13.3c0.9,0.9,1.4,2.2,1.4,4v6.9h-3.5v-6.4c0-1-0.2-1.7-0.6-2.1c-0.4-0.5-1-0.7-1.8-0.7
		c-0.9,0-1.6,0.3-2.1,0.8c-0.5,0.5-0.8,1.4-0.8,2.4v6h-3.5V12.1h3.3v1.4c0.5-0.5,1-0.9,1.7-1.2s1.4-0.4,2.3-0.4
		C122.4,12,123.6,12.4,124.5,13.3z"/>
	<path class="st0" d="M141.6,12.1v10c0,2.2-0.6,3.9-1.7,4.9c-1.2,1.1-2.8,1.6-5,1.6c-1.2,0-2.3-0.1-3.3-0.4s-1.9-0.7-2.6-1.2
		l1.4-2.5c0.5,0.4,1.1,0.8,1.9,1c0.8,0.2,1.6,0.4,2.3,0.4c1.2,0,2.1-0.3,2.7-0.8c0.6-0.5,0.9-1.4,0.9-2.5v-0.5
		c-0.9,1-2.2,1.5-3.8,1.5c-1.1,0-2.1-0.2-3-0.7s-1.6-1.2-2.2-2.1c-0.5-0.9-0.8-1.9-0.8-3c0-1.2,0.3-2.2,0.8-3
		c0.5-0.9,1.3-1.6,2.2-2.1s1.9-0.7,3-0.7c1.7,0,3.1,0.6,4,1.7v-1.5C138.3,12.1,141.6,12.1,141.6,12.1z M137.3,19.9
		c0.6-0.5,0.9-1.3,0.9-2.1c0-0.9-0.3-1.6-0.9-2.1c-0.6-0.5-1.3-0.8-2.3-0.8c-0.9,0-1.7,0.3-2.3,0.8c-0.6,0.5-0.9,1.3-0.9,2.1
		c0,0.9,0.3,1.6,0.9,2.1c0.6,0.5,1.4,0.8,2.3,0.8C135.9,20.7,136.7,20.5,137.3,19.9z"/>
	<path class="st1" d="M154.6,23.4c-1.3-0.7-2.3-1.7-3-2.9c-0.7-1.2-1.1-2.6-1.1-4.2s0.4-2.9,1.1-4.2c0.7-1.2,1.8-2.2,3-2.9
		c1.3-0.7,2.7-1,4.4-1c1.4,0,2.6,0.2,3.7,0.7s2,1.2,2.8,2.1l-2.3,2.2c-1.1-1.2-2.4-1.8-3.9-1.8c-1,0-1.8,0.2-2.6,0.6
		c-0.8,0.4-1.4,1-1.8,1.8s-0.6,1.6-0.6,2.6c0,1,0.2,1.8,0.6,2.6s1,1.4,1.8,1.8s1.6,0.6,2.6,0.6c1.6,0,2.9-0.6,3.9-1.9l2.3,2.2
		c-0.7,0.9-1.7,1.6-2.8,2.1s-2.3,0.7-3.7,0.7C157.3,24.5,155.9,24.1,154.6,23.4z"/>
	<path class="st1" d="M169.5,23.6c-1-0.5-1.8-1.3-2.4-2.2c-0.6-0.9-0.9-2-0.9-3.2s0.3-2.3,0.9-3.2c0.6-0.9,1.4-1.7,2.4-2.2
		s2.1-0.8,3.4-0.8s2.4,0.3,3.4,0.8s1.8,1.3,2.4,2.2c0.6,0.9,0.9,2,0.9,3.2s-0.3,2.3-0.9,3.2c-0.6,0.9-1.4,1.7-2.4,2.2
		s-2.1,0.8-3.4,0.8S170.5,24.1,169.5,23.6z M175.1,20.6c0.6-0.6,0.9-1.4,0.9-2.4s-0.3-1.8-0.9-2.4c-0.6-0.6-1.3-0.9-2.2-0.9
		s-1.6,0.3-2.2,0.9c-0.6,0.6-0.9,1.4-0.9,2.4s0.3,1.8,0.9,2.4s1.3,0.9,2.2,0.9S174.5,21.2,175.1,20.6z"/>
	<path class="st1" d="M186.9,12.4c0.7-0.3,1.5-0.4,2.5-0.4v3.2c-0.4,0-0.6,0-0.8,0c-1,0-1.8,0.3-2.4,0.8c-0.6,0.6-0.9,1.4-0.9,2.5
		v5.7h-3.5V12.1h3.3v1.6C185.6,13.1,186.2,12.7,186.9,12.4z"/>
	<path class="st1" d="M203.1,19.2H194c0.2,0.7,0.6,1.3,1.2,1.8c0.6,0.4,1.4,0.6,2.3,0.6c0.6,0,1.2-0.1,1.7-0.3s0.9-0.5,1.4-0.9
		l1.9,2c-1.1,1.3-2.8,1.9-5,1.9c-1.4,0-2.6-0.3-3.6-0.8s-1.9-1.3-2.4-2.2c-0.6-0.9-0.9-2-0.9-3.2s0.3-2.2,0.8-3.2s1.3-1.7,2.3-2.2
		s2.1-0.8,3.3-0.8s2.2,0.3,3.2,0.8s1.7,1.2,2.3,2.2s0.8,2.1,0.8,3.3C203.1,18.3,203.1,18.6,203.1,19.2z M194.9,15.3
		c-0.5,0.4-0.9,1.1-1,1.8h5.9c-0.1-0.8-0.4-1.4-1-1.8c-0.5-0.5-1.2-0.7-2-0.7C196.1,14.6,195.4,14.8,194.9,15.3z"/>
</g>
<rect x="44.4" y="37.2" class="st2" width="126.4" height="11.2"/>
<g class="st3">
	<path class="st0" d="M51.7,46.1l-2-2.8c-0.3,0-0.5,0.1-0.8,0.1h-2.4v2.7h-0.6v-8.4h3c2.1,0,3.4,1.1,3.4,2.8c0,1.3-0.7,2.3-2,2.6
		l2.1,2.9H51.7z M48.9,42.9c1.8,0,2.8-0.8,2.8-2.3c0-1.5-1-2.3-2.8-2.3h-2.4v4.6H48.9z"/>
	<path class="st0" d="M59.7,43.2h-5.4c0.1,1.5,1.2,2.5,2.7,2.5c0.8,0,1.5-0.3,2-0.9l0.3,0.4c-0.6,0.7-1.4,1-2.4,1
		c-1.9,0-3.2-1.3-3.2-3.2c0-1.9,1.3-3.2,3-3.2c1.7,0,3,1.3,3,3.2C59.7,43,59.7,43.1,59.7,43.2z M54.3,42.7h4.8
		c-0.1-1.4-1.1-2.3-2.4-2.3C55.3,40.4,54.4,41.3,54.3,42.7z"/>
	<path class="st0" d="M60.8,43c0-1.9,1.3-3.2,3.2-3.2c1,0,1.9,0.4,2.4,1.2l-0.4,0.3c-0.5-0.6-1.2-0.9-1.9-0.9
		c-1.5,0-2.6,1.1-2.6,2.6c0,1.6,1.1,2.6,2.6,2.6c0.8,0,1.5-0.3,1.9-0.9l0.4,0.3c-0.5,0.8-1.4,1.2-2.4,1.2
		C62.2,46.2,60.8,44.9,60.8,43z"/>
	<path class="st0" d="M72.7,42.2v4h-0.6V45c-0.4,0.7-1.2,1.2-2.3,1.2c-1.4,0-2.3-0.7-2.3-1.8c0-0.9,0.6-1.8,2.3-1.8h2.1v-0.5
		c0-1.2-0.6-1.8-1.9-1.8c-0.9,0-1.6,0.3-2.2,0.8l-0.3-0.4c0.6-0.6,1.5-0.9,2.5-0.9C71.8,39.8,72.7,40.6,72.7,42.2z M72.1,44.3v-1.2
		H70c-1.3,0-1.8,0.5-1.8,1.3c0,0.8,0.6,1.3,1.7,1.3C71,45.7,71.7,45.2,72.1,44.3z"/>
	<path class="st0" d="M80.8,42.5v3.7h-0.6v-3.6c0-1.4-0.8-2.2-2-2.2c-1.5,0-2.4,0.9-2.4,2.4v3.3h-0.6v-6.3h0.6v1.4
		c0.4-0.9,1.3-1.4,2.5-1.4C79.8,39.8,80.8,40.7,80.8,42.5z"/>
	<path class="st0" d="M86.4,45.7c-0.3,0.3-0.8,0.4-1.3,0.4c-1.1,0-1.7-0.6-1.7-1.7v-4.1h-1.2v-0.5h1.2v-1.4H84v1.4h2v0.5h-2v4
		c0,0.8,0.4,1.2,1.2,1.2c0.4,0,0.7-0.1,1-0.3L86.4,45.7z"/>
	<path class="st0" d="M87.1,43c0-1.9,1.3-3.2,3.1-3.2c1.8,0,3.1,1.3,3.1,3.2c0,1.9-1.3,3.2-3.1,3.2C88.5,46.2,87.1,44.9,87.1,43z
		 M92.8,43c0-1.6-1.1-2.6-2.5-2.6c-1.4,0-2.5,1.1-2.5,2.6c0,1.6,1.1,2.6,2.5,2.6C91.7,45.6,92.8,44.6,92.8,43z"/>
	<path class="st0" d="M104.4,46.3l-1.2-1.3c-0.7,0.8-1.6,1.2-2.8,1.2c-1.6,0-2.7-0.9-2.7-2.1c0-1,0.6-1.7,2.2-2.6l0,0
		c-0.9-0.9-1.1-1.4-1.1-2c0-1,0.8-1.7,2-1.7c1.1,0,1.8,0.6,1.8,1.6c0,0.8-0.5,1.4-1.9,2.2l2.5,2.6c0.3-0.5,0.5-1,0.6-1.7l0.5,0.2
		c-0.2,0.8-0.4,1.4-0.7,1.9l1.2,1.3L104.4,46.3z M102.9,44.6l-2.7-2.8c-1.5,0.9-1.9,1.4-1.9,2.2c0,1,0.9,1.6,2.2,1.6
		C101.4,45.7,102.3,45.3,102.9,44.6z M100.3,41.2c1.3-0.8,1.7-1.2,1.7-1.9c0-0.7-0.5-1.1-1.3-1.1c-0.9,0-1.4,0.5-1.4,1.2
		C99.3,39.9,99.5,40.3,100.3,41.2z"/>
	<path class="st0" d="M116.3,37.7v8.4h-0.6v-4h-5.6v4h-0.6v-8.4h0.6v3.9h5.6v-3.9H116.3z"/>
	<path class="st0" d="M118.4,43c0-1.9,1.3-3.2,3.1-3.2s3.1,1.3,3.1,3.2c0,1.9-1.3,3.2-3.1,3.2S118.4,44.9,118.4,43z M124,43
		c0-1.6-1.1-2.6-2.5-2.6S119,41.4,119,43c0,1.6,1.1,2.6,2.5,2.6S124,44.6,124,43z"/>
	<path class="st0" d="M129.6,45.7c-0.3,0.3-0.8,0.4-1.3,0.4c-1.1,0-1.7-0.6-1.7-1.7v-4.1h-1.2v-0.5h1.2v-1.4h0.6v1.4h2v0.5h-2v4
		c0,0.8,0.4,1.2,1.2,1.2c0.4,0,0.7-0.1,1-0.3L129.6,45.7z"/>
	<path class="st0" d="M136.3,43.2h-5.4c0.1,1.5,1.2,2.5,2.7,2.5c0.8,0,1.5-0.3,2-0.9l0.3,0.4c-0.6,0.7-1.4,1-2.4,1
		c-1.9,0-3.2-1.3-3.2-3.2c0-1.9,1.3-3.2,3-3.2c1.7,0,3,1.3,3,3.2C136.3,43,136.3,43.1,136.3,43.2z M130.9,42.7h4.8
		c-0.1-1.4-1.1-2.3-2.4-2.3C132,40.4,131,41.3,130.9,42.7z M133.3,38.9h-0.6l1.7-1.4h0.9L133.3,38.9z"/>
	<path class="st0" d="M138,37.9c0-0.3,0.2-0.5,0.5-0.5c0.3,0,0.5,0.2,0.5,0.5c0,0.3-0.2,0.5-0.5,0.5C138.2,38.4,138,38.1,138,37.9z
		 M138.2,39.9h0.6v6.3h-0.6V39.9z"/>
	<path class="st0" d="M140.4,45.4l0.3-0.5c0.5,0.4,1.3,0.8,2.3,0.8c1.3,0,1.8-0.5,1.8-1.2c0-1.8-4.1-0.5-4.1-2.9
		c0-0.9,0.8-1.7,2.4-1.7c0.8,0,1.7,0.2,2.1,0.6l-0.3,0.5c-0.5-0.4-1.2-0.6-1.9-0.6c-1.2,0-1.8,0.5-1.8,1.2c0,1.9,4.1,0.6,4.1,2.9
		c0,1-0.9,1.7-2.5,1.7C141.9,46.2,140.9,45.8,140.4,45.4z"/>
	<path class="st0" d="M149.5,45.1l0.3-0.5c0.6,0.6,1.6,1.1,2.8,1.1c1.7,0,2.4-0.7,2.4-1.6c0-2.5-5.2-1-5.2-4.1c0-1.2,0.9-2.2,3-2.2
		c0.9,0,1.9,0.3,2.5,0.8l-0.2,0.5c-0.7-0.5-1.5-0.7-2.3-0.7c-1.6,0-2.4,0.8-2.4,1.7c0,2.5,5.2,1,5.2,4.1c0,1.2-0.9,2.2-3,2.2
		C151.3,46.2,150.1,45.7,149.5,45.1z"/>
	<path class="st0" d="M157.1,45.7c0-0.3,0.2-0.5,0.5-0.5c0.3,0,0.5,0.2,0.5,0.5s-0.2,0.5-0.5,0.5C157.3,46.2,157.1,46,157.1,45.7z"
		/>
	<path class="st0" d="M165.9,43.8H161l-1.1,2.4h-0.7l3.9-8.4h0.6l3.9,8.4H167L165.9,43.8z M165.7,43.3l-2.2-4.8l-2.2,4.8H165.7z"/>
	<path class="st0" d="M168.8,45.7c0-0.3,0.2-0.5,0.5-0.5c0.3,0,0.5,0.2,0.5,0.5s-0.2,0.5-0.5,0.5C169,46.2,168.8,46,168.8,45.7z"/>
</g>
</svg>
