<?xml version="1.0" encoding="utf-8"?>
<!-- Generator: Adobe Illustrator 24.0.1, SVG Export Plug-In . SVG Version: 6.00 Build 0)  -->
<!DOCTYPE svg PUBLIC "-//W3C//DTD SVG 1.1//EN" "http://www.w3.org/Graphics/SVG/1.1/DTD/svg11.dtd" [
	<!ENTITY ns_extend "http://ns.adobe.com/Extensibility/1.0/">
	<!ENTITY ns_ai "http://ns.adobe.com/AdobeIllustrator/10.0/">
	<!ENTITY ns_graphs "http://ns.adobe.com/Graphs/1.0/">
	<!ENTITY ns_vars "http://ns.adobe.com/Variables/1.0/">
	<!ENTITY ns_imrep "http://ns.adobe.com/ImageReplacement/1.0/">
	<!ENTITY ns_sfw "http://ns.adobe.com/SaveForWeb/1.0/">
	<!ENTITY ns_custom "http://ns.adobe.com/GenericCustomNamespace/1.0/">
	<!ENTITY ns_adobe_xpath "http://ns.adobe.com/XPath/1.0/">
]>
<svg version="1.1" id="svg-editor-canvas" xmlns:x="&ns_extend;" xmlns:i="&ns_ai;" xmlns:graph="&ns_graphs;"
	 xmlns="http://www.w3.org/2000/svg" xmlns:xlink="http://www.w3.org/1999/xlink" x="0px" y="0px" width="211px" height="54.3px"
	 viewBox="0 0 211 54.3" style="enable-background:new 0 0 211 54.3;" xml:space="preserve">
<style type="text/css">
	.st0{fill:#1A2B47;}
	.st1{fill:#FA5636;}
	.st2{fill:none;}
</style>
<metadata>
	<sfw  xmlns="&ns_sfw;">
		<slices></slices>
		<sliceSourceBounds  bottomLeftOrigin="true" height="16383" width="200.6" x="3.3" y="-8164.7"></sliceSourceBounds>
	</sfw>
</metadata>
<g id="logo__item--logo_0">
	<g>
		<g>
			<path class="st0" d="M36.4,33.6l-1.6-1.1c-2.2,2.5-5.1,4.4-8.6,5.3c-8.8,2.1-17.7-3.3-19.8-12.1C4.3,17,9.7,8.1,18.5,5.9
				c8.7-2.1,17.6,3.3,19.8,12c1,4.1,0.3,8.2-1.5,11.7l1.6,1l0,0c1.6-3,2.7-6,2.7-8.4c0-10.4-8.5-18.9-18.9-18.9S3.3,11.8,3.3,22.2
				s18.9,28.9,18.9,28.9s8.7-8.5,14.3-17.2C36.4,33.8,36.4,33.7,36.4,33.6z"/>
			<g>
				<path class="st1" d="M35.3,18.7c-1.7-7.2-9-11.6-16.1-9.8C12,10.6,7.6,17.8,9.4,25s9,11.6,16.1,9.8C32.6,33.1,37,25.9,35.3,18.7
					z M31.7,27.2c0,0.8-0.7,1.5-1.5,1.5H14.6c-0.8,0-1.5-0.7-1.5-1.5v-9.9c0-0.8,0.7-1.5,1.5-1.5h4.8v-0.3c0-1.2,1-2.2,2.2-2.2h1.9
					c1.2,0,2.2,1,2.2,2.2v0.3h4.5c0.8,0,1.5,0.7,1.5,1.5L31.7,27.2L31.7,27.2z"/>
				<path class="st1" d="M23.6,14h-1.9c-0.8,0-1.4,0.6-1.4,1.4v0.3H25v-0.3C25,14.6,24.3,14,23.6,14z"/>
			</g>
		</g>
	</g>
</g>
<rect x="44.4" y="37.2" class="st2" width="126.4" height="11.2"/>
<g>
	<path class="st0" d="M54.7,24.9L52,21h-0.2H49v3.9h-3.2v-14h6.1c1.2,0,2.3,0.2,3.2,0.6c0.9,0.4,1.6,1,2.1,1.8s0.7,1.7,0.7,2.7
		s-0.2,1.9-0.8,2.7c-0.5,0.8-1.2,1.3-2.1,1.7l3.1,4.5C58.1,24.9,54.7,24.9,54.7,24.9z M53.9,14.2c-0.5-0.4-1.2-0.6-2.2-0.6H49v4.9
		h2.6c1,0,1.7-0.2,2.2-0.6s0.8-1,0.8-1.8C54.7,15.2,54.4,14.6,53.9,14.2z"/>
	<path class="st0" d="M70.8,20.4h-8.1c0.1,0.7,0.5,1.2,1,1.6s1.2,0.6,2,0.6c0.6,0,1.1-0.1,1.5-0.2c0.4-0.2,0.8-0.4,1.2-0.8l1.7,1.8
		c-1,1.2-2.5,1.7-4.4,1.7c-1.2,0-2.3-0.2-3.2-0.7s-1.7-1.1-2.2-2s-0.8-1.8-0.8-2.9s0.2-2,0.8-2.9c0.5-0.8,1.2-1.5,2.1-2
		c0.9-0.5,1.8-0.7,2.9-0.7s2,0.2,2.9,0.7s1.5,1.1,2,2c0.5,0.8,0.7,1.8,0.7,3C70.8,19.6,70.8,19.9,70.8,20.4z M63.5,16.9
		c-0.5,0.4-0.8,0.9-0.9,1.6h5.3c-0.1-0.7-0.4-1.2-0.9-1.6s-1.1-0.6-1.8-0.6C64.5,16.3,63.9,16.5,63.5,16.9z"/>
	<path class="st0" d="M75,24.3c-0.9-0.5-1.6-1.1-2.1-2c-0.5-0.8-0.8-1.8-0.8-2.9s0.3-2,0.8-2.9c0.5-0.8,1.2-1.5,2.1-2
		s1.9-0.7,3.1-0.7c1.1,0,2.1,0.2,3,0.7c0.8,0.5,1.5,1.1,1.9,2L80.5,18c-0.6-1-1.4-1.5-2.4-1.5c-0.8,0-1.5,0.3-2,0.8
		s-0.8,1.3-0.8,2.2s0.3,1.6,0.8,2.2c0.5,0.5,1.2,0.8,2,0.8c1.1,0,1.9-0.5,2.4-1.5l2.4,1.3c-0.4,0.9-1,1.5-1.9,2
		c-0.8,0.5-1.8,0.7-3,0.7C77,25,75.9,24.8,75,24.3z"/>
	<path class="st0" d="M92.9,15.2c0.9,0.8,1.3,2,1.3,3.6v6.1h-2.9v-1.3c-0.6,1-1.7,1.5-3.3,1.5c-0.8,0-1.5-0.1-2.1-0.4
		s-1.1-0.7-1.4-1.2S84,22.4,84,21.8c0-1,0.4-1.8,1.1-2.4c0.8-0.6,1.9-0.9,3.5-0.9h2.5c0-0.7-0.2-1.2-0.6-1.6s-1-0.5-1.9-0.5
		c-0.6,0-1.1,0.1-1.7,0.3c-0.6,0.2-1,0.4-1.4,0.7l-1.1-2.2c0.6-0.4,1.3-0.7,2.1-1c0.8-0.2,1.7-0.3,2.5-0.3
		C90.7,14,92,14.4,92.9,15.2z M90.2,22.6c0.4-0.2,0.7-0.6,0.9-1.1v-1.1H89c-1.3,0-1.9,0.4-1.9,1.3c0,0.4,0.2,0.7,0.5,1
		c0.3,0.2,0.7,0.4,1.3,0.4C89.4,22.9,89.8,22.8,90.2,22.6z"/>
	<path class="st0" d="M106.8,15.2c0.8,0.8,1.2,2,1.2,3.6V25h-3.1v-5.7c0-0.9-0.2-1.5-0.6-1.9s-0.9-0.6-1.6-0.6
		c-0.8,0-1.4,0.2-1.9,0.7s-0.7,1.2-0.7,2.2V25H97V14.1h3v1.3c0.4-0.5,0.9-0.8,1.5-1s1.3-0.4,2-0.4C104.9,14,106,14.4,106.8,15.2z"/>
	<path class="st0" d="M117.8,24.4c-0.3,0.2-0.7,0.4-1.1,0.5s-0.9,0.2-1.4,0.2c-1.3,0-2.3-0.3-3-1s-1-1.6-1-2.9v-4.4h-1.7v-2.4h1.7
		v-2.6h3.1v2.6h2.7v2.4h-2.7v4.4c0,0.5,0.1,0.8,0.3,1.1s0.6,0.4,1,0.4c0.5,0,0.9-0.1,1.3-0.4L117.8,24.4z"/>
	<path class="st0" d="M121.3,24.3c-0.9-0.5-1.6-1.1-2.1-2c-0.5-0.8-0.8-1.8-0.8-2.9s0.3-2,0.8-2.9c0.5-0.8,1.2-1.5,2.1-2
		s1.9-0.7,3-0.7s2.1,0.2,3,0.7c0.9,0.5,1.6,1.1,2.1,2c0.5,0.8,0.8,1.8,0.8,2.9s-0.3,2-0.8,2.9s-1.2,1.5-2.1,2s-1.9,0.7-3,0.7
		C123.2,25,122.2,24.8,121.3,24.3z M126.3,21.7c0.5-0.5,0.8-1.3,0.8-2.2s-0.3-1.6-0.8-2.2c-0.5-0.5-1.2-0.8-2-0.8s-1.5,0.3-2,0.8
		s-0.8,1.3-0.8,2.2s0.3,1.6,0.8,2.2c0.5,0.5,1.2,0.8,2,0.8C125.2,22.5,125.8,22.2,126.3,21.7z"/>
</g>
<g>
	<path class="st1" d="M151.9,10.9v14h-3.2v-5.7h-6.4v5.7h-3.2v-14h3.2v5.5h6.4v-5.5C148.7,10.9,151.9,10.9,151.9,10.9z"/>
	<path class="st1" d="M157.1,24.3c-0.9-0.5-1.6-1.1-2.1-2s-0.8-1.8-0.8-2.9s0.3-2,0.8-2.9c0.5-0.8,1.2-1.5,2.1-2
		c0.9-0.5,1.9-0.7,3-0.7s2.1,0.2,3,0.7s1.6,1.1,2.1,2c0.5,0.8,0.8,1.8,0.8,2.9s-0.3,2-0.8,2.9c-0.5,0.8-1.2,1.5-2.1,2
		c-0.9,0.5-1.9,0.7-3,0.7S158,24.8,157.1,24.3z M162.1,21.7c0.5-0.5,0.8-1.3,0.8-2.2s-0.3-1.6-0.8-2.2c-0.5-0.5-1.2-0.8-2-0.8
		s-1.5,0.3-2,0.8s-0.8,1.3-0.8,2.2s0.3,1.6,0.8,2.2c0.5,0.5,1.2,0.8,2,0.8S161.6,22.2,162.1,21.7z"/>
	<path class="st1" d="M175,24.4c-0.3,0.2-0.7,0.4-1.1,0.5c-0.4,0.1-0.9,0.2-1.4,0.2c-1.3,0-2.3-0.3-3-1s-1.1-1.6-1.1-2.9v-4.4h-1.7
		v-2.4h1.7v-2.6h3.1v2.6h2.7v2.4h-2.7v4.4c0,0.5,0.1,0.8,0.4,1.1c0.2,0.2,0.6,0.4,1,0.4c0.5,0,0.9-0.1,1.3-0.4L175,24.4z"/>
	<path class="st1" d="M186.9,20.4h-8.1c0.1,0.7,0.5,1.2,1,1.6s1.2,0.6,2,0.6c0.6,0,1.1-0.1,1.5-0.2s0.8-0.4,1.2-0.8l1.7,1.8
		c-1,1.2-2.5,1.7-4.4,1.7c-1.2,0-2.3-0.2-3.2-0.7s-1.7-1.1-2.2-2s-0.8-1.8-0.8-2.9s0.2-2,0.8-2.9c0.5-0.8,1.2-1.5,2.1-2
		c0.9-0.5,1.8-0.7,2.9-0.7c1.1,0,2,0.2,2.9,0.7s1.5,1.1,2,2c0.5,0.8,0.7,1.8,0.7,3C187,19.6,187,19.9,186.9,20.4z M179.6,16.9
		c-0.5,0.4-0.8,0.9-0.9,1.6h5.3c-0.1-0.7-0.4-1.2-0.9-1.6s-1.1-0.6-1.8-0.6C180.7,16.3,180.1,16.5,179.6,16.9z"/>
	<path class="st1" d="M189.2,12.1c-0.4-0.3-0.5-0.7-0.5-1.2s0.2-0.9,0.5-1.2c0.4-0.3,0.8-0.5,1.4-0.5s1,0.2,1.4,0.5s0.5,0.7,0.5,1.2
		s-0.2,1-0.5,1.3c-0.4,0.3-0.8,0.5-1.4,0.5S189.6,12.5,189.2,12.1z M189.1,14.1h3.1v10.8h-3.1V14.1z"/>
	<path class="st1" d="M196.1,24.7c-0.9-0.2-1.5-0.5-2-0.8l1-2.2c0.5,0.3,1.1,0.6,1.7,0.8c0.7,0.2,1.3,0.3,2,0.3c1.3,0,2-0.3,2-1
		c0-0.3-0.2-0.5-0.5-0.7s-0.9-0.2-1.7-0.3c-0.9-0.1-1.6-0.3-2.2-0.5c-0.6-0.2-1.1-0.5-1.5-0.9s-0.6-1.1-0.6-1.9
		c0-0.7,0.2-1.3,0.6-1.8c0.4-0.5,1-0.9,1.7-1.2c0.8-0.3,1.6-0.4,2.7-0.4c0.8,0,1.5,0.1,2.3,0.2c0.8,0.2,1.4,0.4,1.9,0.7l-1,2.2
		c-0.9-0.5-2-0.8-3.1-0.8c-0.7,0-1.2,0.1-1.5,0.3c-0.3,0.2-0.5,0.4-0.5,0.7c0,0.3,0.2,0.6,0.5,0.7c0.4,0.1,0.9,0.3,1.7,0.4
		c0.9,0.1,1.6,0.3,2.2,0.5c0.6,0.2,1,0.5,1.5,0.9c0.4,0.4,0.6,1.1,0.6,1.8c0,0.7-0.2,1.3-0.6,1.8s-1,0.9-1.8,1.2
		c-0.8,0.3-1.7,0.4-2.7,0.4C197.8,25,197,24.9,196.1,24.7z"/>
</g>
<g>
	<path class="st0" d="M51.5,46.1l-1.9-2.7c-0.2,0-0.4,0-0.7,0h-2.3v2.7h-0.9v-8.4H49c1.1,0,1.9,0.3,2.5,0.8c0.6,0.5,0.9,1.2,0.9,2.1
		c0,0.7-0.2,1.2-0.5,1.7c-0.3,0.5-0.8,0.8-1.4,1l2.1,2.9H51.5z M50.8,42.1c0.4-0.4,0.7-0.9,0.7-1.5c0-0.7-0.2-1.2-0.7-1.6
		s-1.1-0.5-1.9-0.5h-2.2v4.2h2.2C49.8,42.7,50.4,42.5,50.8,42.1z"/>
	<path class="st0" d="M59.8,43.2h-5.3c0,0.7,0.3,1.2,0.8,1.6s1,0.6,1.7,0.6c0.4,0,0.8-0.1,1.1-0.2c0.3-0.1,0.6-0.3,0.9-0.6l0.5,0.6
		c-0.3,0.3-0.6,0.6-1,0.8s-0.9,0.3-1.4,0.3c-0.6,0-1.2-0.1-1.7-0.4c-0.5-0.3-0.9-0.7-1.2-1.1c-0.3-0.5-0.4-1-0.4-1.7
		c0-0.6,0.1-1.2,0.4-1.7c0.3-0.5,0.6-0.9,1.1-1.1c0.5-0.3,1-0.4,1.6-0.4c0.6,0,1.1,0.1,1.6,0.4c0.5,0.3,0.8,0.7,1.1,1.1
		c0.3,0.5,0.4,1,0.4,1.7L59.8,43.2z M55.2,41.1c-0.4,0.4-0.6,0.9-0.7,1.5H59c-0.1-0.6-0.3-1.1-0.7-1.5c-0.4-0.4-0.9-0.6-1.5-0.6
		C56.1,40.5,55.6,40.7,55.2,41.1z"/>
	<path class="st0" d="M67.3,37.2v8.9h-0.8v-1.2c-0.3,0.4-0.6,0.7-1,1c-0.4,0.2-0.9,0.3-1.4,0.3c-0.6,0-1.1-0.1-1.6-0.4
		c-0.5-0.3-0.9-0.7-1.1-1.1c-0.3-0.5-0.4-1-0.4-1.7s0.1-1.2,0.4-1.7c0.3-0.5,0.6-0.9,1.1-1.1c0.5-0.3,1-0.4,1.6-0.4
		c0.5,0,1,0.1,1.4,0.3s0.8,0.5,1,0.9v-3.8H67.3z M65.3,45.1c0.4-0.2,0.6-0.5,0.8-0.9c0.2-0.4,0.3-0.8,0.3-1.3c0-0.5-0.1-0.9-0.3-1.3
		c-0.2-0.4-0.5-0.7-0.8-0.9c-0.4-0.2-0.8-0.3-1.2-0.3c-0.4,0-0.9,0.1-1.2,0.3c-0.4,0.2-0.6,0.5-0.8,0.9c-0.2,0.4-0.3,0.8-0.3,1.3
		c0,0.5,0.1,0.9,0.3,1.3c0.2,0.4,0.5,0.7,0.8,0.9s0.8,0.3,1.2,0.3C64.6,45.4,65,45.3,65.3,45.1z"/>
	<path class="st0" d="M75.2,43.2h-5.3c0,0.7,0.3,1.2,0.8,1.6s1,0.6,1.7,0.6c0.4,0,0.8-0.1,1.1-0.2c0.3-0.1,0.6-0.3,0.9-0.6l0.5,0.6
		c-0.3,0.3-0.6,0.6-1,0.8s-0.9,0.3-1.4,0.3c-0.6,0-1.2-0.1-1.7-0.4c-0.5-0.3-0.9-0.7-1.2-1.1c-0.3-0.5-0.4-1-0.4-1.7
		c0-0.6,0.1-1.2,0.4-1.7c0.3-0.5,0.6-0.9,1.1-1.1c0.5-0.3,1-0.4,1.6-0.4c0.6,0,1.1,0.1,1.6,0.4c0.5,0.3,0.8,0.7,1.1,1.1
		c0.3,0.5,0.4,1,0.4,1.7L75.2,43.2z M70.6,41.1c-0.4,0.4-0.6,0.9-0.7,1.5h4.5c-0.1-0.6-0.3-1.1-0.7-1.5c-0.4-0.4-0.9-0.6-1.5-0.6
		C71.5,40.5,71,40.7,70.6,41.1z"/>
	<path class="st0" d="M85.8,37.2v8.9H85v-1.2c-0.3,0.4-0.6,0.7-1,1c-0.4,0.2-0.9,0.3-1.4,0.3c-0.6,0-1.1-0.1-1.6-0.4
		c-0.5-0.3-0.9-0.7-1.1-1.1c-0.3-0.5-0.4-1-0.4-1.7s0.1-1.2,0.4-1.7c0.3-0.5,0.6-0.9,1.1-1.1c0.5-0.3,1-0.4,1.6-0.4
		c0.5,0,1,0.1,1.4,0.3s0.8,0.5,1,0.9v-3.8H85.8z M83.9,45.1c0.4-0.2,0.6-0.5,0.8-0.9c0.2-0.4,0.3-0.8,0.3-1.3c0-0.5-0.1-0.9-0.3-1.3
		c-0.2-0.4-0.5-0.7-0.8-0.9c-0.4-0.2-0.8-0.3-1.2-0.3c-0.4,0-0.9,0.1-1.2,0.3c-0.4,0.2-0.6,0.5-0.8,0.9c-0.2,0.4-0.3,0.8-0.3,1.3
		c0,0.5,0.1,0.9,0.3,1.3c0.2,0.4,0.5,0.7,0.8,0.9s0.8,0.3,1.2,0.3C83.1,45.4,83.5,45.3,83.9,45.1z"/>
	<path class="st0" d="M93.7,43.2h-5.3c0,0.7,0.3,1.2,0.8,1.6s1,0.6,1.7,0.6c0.4,0,0.8-0.1,1.1-0.2c0.3-0.1,0.6-0.3,0.9-0.6l0.5,0.6
		c-0.3,0.3-0.6,0.6-1,0.8s-0.9,0.3-1.4,0.3c-0.6,0-1.2-0.1-1.7-0.4c-0.5-0.3-0.9-0.7-1.2-1.1c-0.3-0.5-0.4-1-0.4-1.7
		c0-0.6,0.1-1.2,0.4-1.7c0.3-0.5,0.6-0.9,1.1-1.1c0.5-0.3,1-0.4,1.6-0.4c0.6,0,1.1,0.1,1.6,0.4c0.5,0.3,0.8,0.7,1.1,1.1
		c0.3,0.5,0.4,1,0.4,1.7L93.7,43.2z M89.1,41.1c-0.4,0.4-0.6,0.9-0.7,1.5h4.5c-0.1-0.6-0.3-1.1-0.7-1.5c-0.4-0.4-0.9-0.6-1.5-0.6
		C90.1,40.5,89.5,40.7,89.1,41.1z"/>
	<path class="st0" d="M105.8,37.7v8.4h-0.9v-3.9h-5.3v3.9h-0.9v-8.4h0.9v3.7h5.3v-3.7H105.8z"/>
	<path class="st0" d="M109.3,45.8c-0.5-0.3-0.9-0.7-1.2-1.1s-0.4-1-0.4-1.7c0-0.6,0.1-1.2,0.4-1.7c0.3-0.5,0.7-0.9,1.2-1.1
		c0.5-0.3,1-0.4,1.6-0.4c0.6,0,1.2,0.1,1.6,0.4c0.5,0.3,0.9,0.7,1.1,1.1c0.3,0.5,0.4,1,0.4,1.7c0,0.6-0.1,1.2-0.4,1.7
		c-0.3,0.5-0.7,0.9-1.1,1.1c-0.5,0.3-1,0.4-1.6,0.4C110.3,46.2,109.8,46,109.3,45.8z M112.2,45.1c0.4-0.2,0.6-0.5,0.8-0.9
		c0.2-0.4,0.3-0.8,0.3-1.3c0-0.5-0.1-0.9-0.3-1.3c-0.2-0.4-0.5-0.7-0.8-0.9c-0.4-0.2-0.8-0.3-1.2-0.3c-0.4,0-0.8,0.1-1.2,0.3
		c-0.4,0.2-0.6,0.5-0.8,0.9c-0.2,0.4-0.3,0.8-0.3,1.3c0,0.5,0.1,0.9,0.3,1.3s0.5,0.7,0.8,0.9c0.4,0.2,0.8,0.3,1.2,0.3
		C111.4,45.4,111.8,45.3,112.2,45.1z"/>
	<path class="st0" d="M119.2,45.7c-0.2,0.1-0.4,0.3-0.6,0.3c-0.2,0.1-0.5,0.1-0.7,0.1c-0.6,0-1-0.2-1.4-0.5
		c-0.3-0.3-0.5-0.8-0.5-1.4v-3.8h-1.1v-0.7h1.1v-1.4h0.9v1.4h1.9v0.7h-1.9v3.8c0,0.4,0.1,0.7,0.3,0.9c0.2,0.2,0.5,0.3,0.8,0.3
		c0.2,0,0.3,0,0.5-0.1s0.3-0.1,0.4-0.2L119.2,45.7z"/>
	<path class="st0" d="M126,43.2h-5.3c0,0.7,0.3,1.2,0.8,1.6s1,0.6,1.7,0.6c0.4,0,0.8-0.1,1.1-0.2c0.3-0.1,0.6-0.3,0.9-0.6l0.5,0.6
		c-0.3,0.3-0.6,0.6-1,0.8s-0.9,0.3-1.4,0.3c-0.6,0-1.2-0.1-1.7-0.4c-0.5-0.3-0.9-0.7-1.2-1.1s-0.4-1-0.4-1.7c0-0.6,0.1-1.2,0.4-1.7
		c0.3-0.5,0.6-0.9,1.1-1.1c0.5-0.3,1-0.4,1.6-0.4s1.1,0.1,1.6,0.4c0.5,0.3,0.8,0.7,1.1,1.1c0.3,0.5,0.4,1,0.4,1.7L126,43.2z
		 M121.5,41.1c-0.4,0.4-0.6,0.9-0.7,1.5h4.5c-0.1-0.6-0.3-1.1-0.7-1.5s-0.9-0.6-1.5-0.6C122.4,40.5,121.9,40.7,121.5,41.1z"/>
	<path class="st0" d="M127.8,38.2c-0.1-0.1-0.2-0.3-0.2-0.4c0-0.2,0.1-0.3,0.2-0.4s0.3-0.2,0.4-0.2s0.3,0.1,0.4,0.2
		c0.1,0.1,0.2,0.3,0.2,0.4c0,0.2-0.1,0.3-0.2,0.4c-0.1,0.1-0.3,0.2-0.4,0.2S127.9,38.4,127.8,38.2z M127.8,39.8h0.9v6.3h-0.9V39.8z"
		/>
	<path class="st0" d="M131.2,45.9c-0.5-0.1-0.8-0.3-1.1-0.6l0.4-0.7c0.3,0.2,0.6,0.4,1,0.5c0.4,0.1,0.8,0.2,1.2,0.2
		c0.6,0,1-0.1,1.3-0.3c0.3-0.2,0.4-0.4,0.4-0.8c0-0.2-0.1-0.4-0.2-0.5c-0.2-0.1-0.3-0.2-0.6-0.3c-0.2-0.1-0.5-0.1-0.9-0.2
		c-0.5-0.1-0.9-0.2-1.2-0.3c-0.3-0.1-0.6-0.3-0.8-0.5c-0.2-0.2-0.3-0.6-0.3-1c0-0.5,0.2-1,0.7-1.3c0.4-0.3,1.1-0.5,1.8-0.5
		c0.4,0,0.8,0.1,1.2,0.2c0.4,0.1,0.7,0.2,1,0.4l-0.4,0.7c-0.5-0.4-1.1-0.5-1.9-0.5c-0.5,0-1,0.1-1.2,0.3c-0.3,0.2-0.4,0.4-0.4,0.8
		c0,0.2,0.1,0.4,0.2,0.6c0.2,0.1,0.3,0.2,0.6,0.3c0.2,0.1,0.6,0.1,1,0.2c0.5,0.1,0.9,0.2,1.2,0.3c0.3,0.1,0.6,0.3,0.8,0.5
		c0.2,0.2,0.3,0.6,0.3,1c0,0.6-0.2,1-0.7,1.3s-1.1,0.5-1.9,0.5C132.2,46.2,131.7,46.1,131.2,45.9z"/>
	<path class="st0" d="M140.7,45.9c-0.6-0.2-1-0.5-1.3-0.8l0.3-0.7c0.3,0.3,0.7,0.5,1.2,0.7c0.5,0.2,1,0.3,1.6,0.3
		c0.8,0,1.3-0.1,1.7-0.4c0.4-0.3,0.6-0.6,0.6-1.1c0-0.3-0.1-0.6-0.3-0.8c-0.2-0.2-0.5-0.4-0.8-0.5c-0.3-0.1-0.7-0.2-1.2-0.4
		c-0.6-0.2-1.1-0.3-1.5-0.5s-0.7-0.4-1-0.7c-0.3-0.3-0.4-0.7-0.4-1.2c0-0.4,0.1-0.8,0.3-1.2c0.2-0.3,0.6-0.6,1-0.8s1-0.3,1.7-0.3
		c0.5,0,0.9,0.1,1.4,0.2c0.5,0.1,0.9,0.3,1.2,0.5l-0.3,0.7c-0.4-0.2-0.7-0.4-1.1-0.5c-0.4-0.1-0.8-0.2-1.2-0.2
		c-0.7,0-1.3,0.1-1.7,0.4s-0.6,0.7-0.6,1.1c0,0.3,0.1,0.6,0.3,0.8s0.5,0.4,0.8,0.5s0.7,0.2,1.2,0.4c0.6,0.2,1.1,0.3,1.5,0.4
		c0.4,0.1,0.7,0.4,1,0.7c0.3,0.3,0.4,0.7,0.4,1.2c0,0.4-0.1,0.8-0.3,1.2c-0.2,0.3-0.6,0.6-1,0.8s-1.1,0.3-1.7,0.3
		C141.9,46.2,141.3,46.1,140.7,45.9z"/>
	<path class="st0" d="M147.3,46c-0.1-0.1-0.2-0.3-0.2-0.5c0-0.2,0.1-0.3,0.2-0.5s0.3-0.2,0.5-0.2c0.2,0,0.3,0.1,0.5,0.2
		s0.2,0.3,0.2,0.5c0,0.2-0.1,0.3-0.2,0.5s-0.3,0.2-0.5,0.2C147.5,46.2,147.4,46.1,147.3,46z"/>
	<path class="st0" d="M156,43.9h-4.7l-1,2.2h-0.9l3.8-8.4h0.9l3.8,8.4H157L156,43.9z M155.7,43.1l-2-4.5l-2,4.5H155.7z"/>
	<path class="st0" d="M159.2,46c-0.1-0.1-0.2-0.3-0.2-0.5c0-0.2,0.1-0.3,0.2-0.5s0.3-0.2,0.5-0.2c0.2,0,0.3,0.1,0.5,0.2
		s0.2,0.3,0.2,0.5c0,0.2-0.1,0.3-0.2,0.5s-0.3,0.2-0.5,0.2C159.5,46.2,159.4,46.1,159.2,46z"/>
</g>
</svg>
